<?xml version="1.0" standalone="no"?><!DOCTYPE svg PUBLIC "-//W3C//DTD SVG 1.1//EN" "http://www.w3.org/Graphics/SVG/1.1/DTD/svg11.dtd"><svg t="1616054078283" class="icon" viewBox="0 0 1024 1024" version="1.1" xmlns="http://www.w3.org/2000/svg" p-id="1260" xmlns:xlink="http://www.w3.org/1999/xlink" width="200" height="200"><defs><style type="text/css"></style></defs><path d="M0 0m136.533333 0l750.933334 0q136.533333 0 136.533333 136.533333l0 750.933334q0 136.533333-136.533333 136.533333l-750.933334 0q-136.533333 0-136.533333-136.533333l0-750.933334q0-136.533333 136.533333-136.533333Z" fill="#30384F" p-id="1261"></path><path d="M286.72 409.6m27.306667 0l409.6 0q27.306667 0 27.306666 27.306667l0 273.066666q0 27.306667-27.306666 27.306667l-409.6 0q-27.306667 0-27.306667-27.306667l0-273.066666q0-27.306667 27.306667-27.306667Z" fill="#59554A" p-id="1262"></path><path d="M730.862933 750.933333H270.035627A37.956267 37.956267 0 0 1 232.106667 713.018027V390.908587a37.956267 37.956267 0 0 1 37.888-37.915307h124.040533v-49.152a37.92896 37.92896 0 0 1 37.888-37.888h136.915627a37.942613 37.942613 0 0 1 37.915306 37.888v49.152h124.1088a37.874347 37.874347 0 0 1 37.819734 37.915307v322.10944A37.874347 37.874347 0 0 1 730.862933 750.933333zM583.14752 303.80032a14.308693 14.308693 0 0 0-14.308693-14.349653H431.96416a14.336 14.336 0 0 0-14.322347 14.281386v49.152h165.505707v-49.152z m161.928533 211.626667a11.455147 11.455147 0 0 1-6.075733 1.92512h-194.1504v53.49376a11.782827 11.782827 0 0 1-11.810133 11.79648h-65.194667a11.79648 11.79648 0 0 1-11.782827-11.79648v-55.760214a11.441493 11.441493 0 0 1-6.67648 2.33472h-68.266666A94.208 94.208 0 0 0 382.293333 505.173333a94.08512 94.08512 0 0 0-1.14688-11.373226h68.266667a11.4688 11.4688 0 0 1 6.67648 2.33472v-23.210667a11.79648 11.79648 0 0 1 11.782827-11.79648h65.194666a11.782827 11.782827 0 0 1 11.810134 11.79648v20.84864h194.1504a11.482453 11.482453 0 0 1 6.075733 1.92512v-104.789333a14.281387 14.281387 0 0 0-14.226773-14.322347H270.035627a14.363307 14.363307 0 0 0-14.322347 14.322347v102.877866h127.726933A93.812053 93.812053 0 0 0 382.293333 505.173333a94.016853 94.016853 0 0 0 1.2288 12.288h-127.808853v195.556694a14.363307 14.363307 0 0 0 14.322347 14.308693H730.862933a14.281387 14.281387 0 0 0 14.226774-14.308693V515.495253zM791.893333 955.733333v-27.306666h109.226667v-13.653334h-13.653333v-13.653333h-13.653334v-13.653333h-13.653333v-13.653334h-13.653333v-13.653333h-13.653334v-13.653333h-13.653333v-13.653334h-13.653333v-13.653333h-13.653334v-13.653333h13.653334v-13.653334h13.653333v13.653334h13.653333v13.653333h13.653334v13.653333h13.653333v13.653334h13.653333v13.653333h13.653334v13.653333h13.653333v13.653334h13.653333v13.653333h13.653334v-109.226667h27.306666v163.84H791.893333z m70.314667-68.266666zM860.16 887.466667z" fill="#FFC738" p-id="1263"></path></svg>